<?xml version="1.0" encoding="UTF-8"?>
<svg version="1.1" xmlns="http://www.w3.org/2000/svg" width="198" height="221">
<path d="M0 0 C1.98 0 3.96 0 6 0 C8.64736951 5.20643305 11.12988713 10.43509299 13.42578125 15.8046875 C13.73451172 16.52210114 14.04324219 17.23951477 14.36132812 17.97866821 C15.34836222 20.27604411 16.33110538 22.57520977 17.3125 24.875 C17.64704193 25.65834717 17.98158386 26.44169434 18.32626343 27.2487793 C34.67226732 65.56305454 34.67226732 65.56305454 34 78 C34.59167969 77.94199219 35.18335938 77.88398437 35.79296875 77.82421875 C40.05027685 77.58114243 42.28822771 77.50485406 45.875 80 C48.4234637 83.59783111 49.65096156 86.81088062 51 91 C50.34 91.66 49.68 92.32 49 93 C45.82537057 90.59757773 43.14248259 88.38286724 41 85 C41 84.34 41 83.68 41 83 C38.525 83.495 38.525 83.495 36 84 C38.47961509 91.06928727 41.2349153 97.65701678 44.875 104.1875 C56.71493572 125.78715664 61.9471096 149.73210854 65 174 C65.19479275 175.48183925 65.39009191 176.96361203 65.5859375 178.4453125 C66.51942516 185.61686846 67.34210317 192.79776107 68 200 C64.93348063 202.04434624 64.06658485 202.28003979 60.5660553 202.46829224 C59.20544731 202.54814362 59.20544731 202.54814362 57.81735229 202.62960815 C56.82454254 202.67852203 55.83173279 202.72743591 54.80883789 202.77783203 C53.76143936 202.83664551 52.71404083 202.89545898 51.63490295 202.95605469 C48.16457073 203.14870641 44.69369274 203.32833474 41.22265625 203.5078125 C38.81509805 203.63871041 36.40758189 203.7703836 34.00010681 203.90280151 C27.65464387 204.2495818 21.30863564 204.58519018 14.96246338 204.91870117 C9.78050297 205.19281461 4.59896952 205.47453091 -0.58255672 205.75671577 C-11.28109392 206.33934693 -21.97990977 206.91690204 -32.67944336 207.48095703 C-33.67022888 207.53391937 -34.6610144 207.58688171 -35.68182373 207.64144897 C-36.59171555 207.68904358 -37.50160736 207.73663818 -38.43907166 207.78567505 C-39.22791717 207.82732347 -40.01676268 207.8689719 -40.8295126 207.9118824 C-42.88485833 207.99532547 -44.94296115 208 -47 208 C-47.08243693 206.62605116 -47.1398309 205.25059402 -47.1875 203.875 C-47.22230469 203.10929688 -47.25710937 202.34359375 -47.29296875 201.5546875 C-47 199 -47 199 -45.48046875 196.09375 C-41.12697463 186.99621084 -46.01596324 172.60822833 -48 163 C-56.08959028 163.80789601 -63.85893379 164.81526022 -71.6875 167.0625 C-83.00155982 170.20859218 -94.19238575 171.85344312 -105 166 C-106.62096745 163.0738983 -107 161.35083337 -107 158 C-107.86625 157.608125 -108.7325 157.21625 -109.625 156.8125 C-112.56250601 155.23495048 -114.93507152 153.57416246 -117.42578125 151.37109375 C-119.00259799 149.96326327 -119.00259799 149.96326327 -120.79296875 148.66015625 C-125.68185249 144.8970709 -128.39143184 140.99383136 -130 135 C-130.43300552 131.60484307 -130.6748821 128.36833049 -130 125 C-126.69248311 120.91424384 -122.40244321 120.05711917 -117.4375 119.0625 C-113.96544774 118.33915578 -111.62416972 117.51007539 -109 115 C-109.639375 114.071875 -110.27875 113.14375 -110.9375 112.1875 C-114.88064384 106.09355043 -114.57606452 100.06913463 -114 93 C-112.02547613 85.16137812 -106.77450451 79.1624227 -100.6875 74.0625 C-92.47410827 70.81534513 -86.01205277 72.21004332 -77.8828125 75.1875 C-74.84738175 76.04301436 -73.86476211 76.11610457 -71 75 C-65.52458983 69.33741185 -65.39739515 62.19017315 -65.51098633 54.74121094 C-65.54874947 53.32746749 -65.58675895 51.9137306 -65.625 50.5 C-65.64372055 49.03681035 -65.66021626 47.57359066 -65.67456055 46.11035156 C-65.76154377 39.21376334 -66.00811423 32.33868102 -66.41796875 25.453125 C-66.51440674 23.74479492 -66.51440674 23.74479492 -66.61279297 22.00195312 C-66.74284277 19.88427184 -66.89815895 17.76794258 -67.08251953 15.65429688 C-67.53606169 8.72445689 -67.53606169 8.72445689 -64.69921875 4.890625 C-62 3 -62 3 -59 2 C-57.2734375 3.1171875 -57.2734375 3.1171875 -55.375 4.875 C-54.67246094 5.52339844 -53.96992187 6.17179688 -53.24609375 6.83984375 C-47.52062956 12.3462467 -41.99815162 17.91199612 -36.83203125 23.94921875 C-34.00295774 27.11609208 -30.96132438 30.05998576 -27.91796875 33.01953125 C-26 35 -26 35 -24 38 C-19.545 37.505 -19.545 37.505 -15 37 C-14.58113525 35.95021973 -14.16227051 34.90043945 -13.73071289 33.81884766 C-12.17917553 29.9309668 -10.62650412 26.0435397 -9.07348633 22.15625 C-8.40097514 20.47245478 -7.72877322 18.788536 -7.05688477 17.10449219 C-6.09211855 14.6865246 -5.12624775 12.26900083 -4.16015625 9.8515625 C-3.85908463 9.0963028 -3.558013 8.34104309 -3.24781799 7.56289673 C-1.11387171 2.22774341 -1.11387171 2.22774341 0 0 Z " fill="#FDB82F" transform="translate(130,0)"/>
<path d="M0 0 C1.98 0 3.96 0 6 0 C8.64736951 5.20643305 11.12988713 10.43509299 13.42578125 15.8046875 C13.88887695 16.88080795 13.88887695 16.88080795 14.36132812 17.97866821 C15.34836222 20.27604411 16.33110538 22.57520977 17.3125 24.875 C17.64704193 25.65834717 17.98158386 26.44169434 18.32626343 27.2487793 C34.60428018 65.40369585 34.60428018 65.40369585 34 79 C28.44425937 81.12602349 22.8482743 83.09164991 17.21704102 85.00805664 C6.06386902 88.80659471 -4.95969985 92.82261604 -15.87719727 97.25634766 C-16.77237061 97.61647949 -17.66754395 97.97661133 -18.58984375 98.34765625 C-19.37222412 98.66742432 -20.15460449 98.98719238 -20.96069336 99.31665039 C-23 100 -23 100 -26 100 C-27.45121798 98.13737755 -28.61052546 96.1692095 -29.81640625 94.140625 C-36.58839373 87.50189667 -48.67338756 85.87907048 -57.625 83.25 C-59.02486791 82.83506812 -60.42460851 82.41970645 -61.82421875 82.00390625 C-65.21469508 80.99765408 -68.60684787 79.9971973 -72 79 C-72 75.62268144 -71.54983086 75.0672036 -69.5625 72.5 C-66.20845162 68.14260381 -65.87228858 64.8289914 -65.8671875 59.3671875 C-65.86609482 58.7060495 -65.86500214 58.0449115 -65.86387634 57.36373901 C-65.8629748 55.94085627 -65.86470932 54.51796991 -65.86880493 53.09509277 C-65.87502939 50.86446618 -65.87263388 48.63395186 -65.86987305 46.40332031 C-65.87598464 39.39688084 -65.98181399 32.42602902 -66.40234375 25.4296875 C-66.4688916 24.29418457 -66.53543945 23.15868164 -66.60400391 21.98876953 C-66.74000733 19.87609802 -66.89879051 17.76473344 -67.08349609 15.65576172 C-67.53465752 8.72255923 -67.53465752 8.72255923 -64.69921875 4.890625 C-62 3 -62 3 -59 2 C-57.2734375 3.1171875 -57.2734375 3.1171875 -55.375 4.875 C-54.67246094 5.52339844 -53.96992187 6.17179688 -53.24609375 6.83984375 C-47.52062956 12.3462467 -41.99815162 17.91199612 -36.83203125 23.94921875 C-34.00295774 27.11609208 -30.96132438 30.05998576 -27.91796875 33.01953125 C-26 35 -26 35 -24 38 C-19.545 37.505 -19.545 37.505 -15 37 C-14.58113525 35.95021973 -14.16227051 34.90043945 -13.73071289 33.81884766 C-12.17917553 29.9309668 -10.62650412 26.0435397 -9.07348633 22.15625 C-8.40097514 20.47245478 -7.72877322 18.788536 -7.05688477 17.10449219 C-6.09211855 14.6865246 -5.12624775 12.26900083 -4.16015625 9.8515625 C-3.85908463 9.0963028 -3.558013 8.34104309 -3.24781799 7.56289673 C-1.11387171 2.22774341 -1.11387171 2.22774341 0 0 Z " fill="#FB9C67" transform="translate(130,0)"/>
<path d="M0 0 C0.66 0 1.32 0 2 0 C2.4021875 1.14662109 2.4021875 1.14662109 2.8125 2.31640625 C5.10474478 8.58237799 7.63315742 14.37148189 10.875 20.1875 C22.71493572 41.78715664 27.9471096 65.73210854 31 90 C31.19479275 91.48183925 31.39009191 92.96361203 31.5859375 94.4453125 C32.51942516 101.61686846 33.34210317 108.79776107 34 116 C30.93348063 118.04434624 30.06658485 118.28003979 26.5660553 118.46829224 C25.20544731 118.54814362 25.20544731 118.54814362 23.81735229 118.62960815 C22.82454254 118.67852203 21.83173279 118.72743591 20.80883789 118.77783203 C19.76143936 118.83664551 18.71404083 118.89545898 17.63490295 118.95605469 C14.16457073 119.14870641 10.69369274 119.32833474 7.22265625 119.5078125 C4.81509805 119.63871041 2.40758189 119.7703836 0.00010681 119.90280151 C-6.34535613 120.2495818 -12.69136436 120.58519018 -19.03753662 120.91870117 C-24.21949703 121.19281461 -29.40103048 121.47453091 -34.58255672 121.75671577 C-45.28109392 122.33934693 -55.97990977 122.91690204 -66.67944336 123.48095703 C-67.67022888 123.53391937 -68.6610144 123.58688171 -69.68182373 123.64144897 C-70.59171555 123.68904358 -71.50160736 123.73663818 -72.43907166 123.78567505 C-73.22791717 123.82732347 -74.01676268 123.8689719 -74.8295126 123.9118824 C-76.88485833 123.99532547 -78.94296115 124 -81 124 C-81.08243693 122.62605116 -81.1398309 121.25059402 -81.1875 119.875 C-81.23970703 118.72644531 -81.23970703 118.72644531 -81.29296875 117.5546875 C-81 115 -81 115 -79.48046875 112.09375 C-75.12697463 102.99621084 -80.01596324 88.60822833 -82 79 C-90.08959028 79.80789601 -97.85893379 80.81526022 -105.6875 83.0625 C-117.00155982 86.20859218 -128.19238575 87.85344312 -139 82 C-140.62096745 79.0738983 -141 77.35083337 -141 74 C-141.86625 73.608125 -142.7325 73.21625 -143.625 72.8125 C-146.56250601 71.23495048 -148.93507152 69.57416246 -151.42578125 67.37109375 C-153.00259799 65.96326327 -153.00259799 65.96326327 -154.79296875 64.66015625 C-159.68185249 60.8970709 -162.39143184 56.99383136 -164 51 C-164.43300552 47.60484307 -164.6748821 44.36833049 -164 41 C-160.24790197 36.36505537 -154.76825011 35.65282659 -149.203125 34.51953125 C-146.7896563 34.01177628 -146.7896563 34.01177628 -143.8125 32.6875 C-139.95945957 31.74564567 -138.4576042 33.20204582 -135 35 C-129.10771034 35.56117044 -125.29695318 34.89833287 -120 32 C-117.12314797 29.45911321 -117.12314797 29.45911321 -115 27 C-113.22888156 27.47811177 -111.45811517 27.9575278 -109.6875 28.4375 C-108.70136719 28.70433594 -107.71523437 28.97117187 -106.69921875 29.24609375 C-104.78482474 29.78079425 -102.88566385 30.37144538 -101 31 C-100.19140625 32.85546875 -100.19140625 32.85546875 -99.5625 35.1875 C-97.80712715 40.8587046 -95.73453032 44.62683016 -91 48.375 C-85.38763889 51.24756332 -78.57510938 51.04666031 -72.625 49.3046875 C-65.75036152 46.20589212 -62.44409796 41.42524862 -59.6875 34.625 C-59.11376441 33.08747932 -58.54730371 31.54712669 -58 30 C-48.85495086 29.12812032 -41.39142543 31.40115394 -32.89257812 34.37792969 C-31.00208926 34.99931328 -29.06981403 35.48840738 -27.140625 35.9765625 C-24 37 -24 37 -22 40 C-22 41.32 -22 42.64 -22 44 C-22.53109375 44.23074219 -23.0621875 44.46148437 -23.609375 44.69921875 C-24.31578125 45.02535156 -25.0221875 45.35148437 -25.75 45.6875 C-26.44609375 46.00074219 -27.1421875 46.31398437 -27.859375 46.63671875 C-32.73977775 49.74485846 -34.42169674 53.56437937 -35.62695312 58.98046875 C-35.77068359 59.68816406 -35.91441406 60.39585937 -36.0625 61.125 C-37.53806295 68.27729204 -37.53806295 68.27729204 -39.2109375 70.89453125 C-41.89014318 72.55002297 -44.47318698 72.97929636 -47.5625 73.5625 C-48.2114624 73.68544434 -48.8604248 73.80838867 -49.52905273 73.93505859 C-56.31180875 75.16216238 -63.14863754 75.88671235 -70.00390625 76.5703125 C-73.36358509 76.91035127 -76.67532408 77.4012432 -80 78 C-79.79503906 78.7734375 -79.59007813 79.546875 -79.37890625 80.34375 C-72.95606483 105.1746393 -72.95606483 105.1746393 -78 115 C-78.36312397 117.32888311 -78.69890034 119.66228861 -79 122 C-77.83766846 121.91435791 -76.67533691 121.82871582 -75.4777832 121.74047852 C-71.05512712 121.4153421 -66.63221528 121.09379724 -62.20922852 120.77319336 C-60.31560527 120.6354608 -58.42204732 120.49682687 -56.52856445 120.35717773 C-45.45727116 119.54133622 -34.39276147 118.84217452 -23.30233765 118.34632874 C-16.33542155 118.03070659 -9.38923452 117.55882983 -2.4375 117 C8.70207551 116.13763286 19.8379665 115.48364569 31 115 C30.50220673 110.26385262 29.98396885 105.56165462 29.125 100.875 C28.42908647 96.87730693 27.85235121 92.88449269 27.37890625 88.85546875 C24.19297655 61.86440228 17.2599772 37.77671145 4.1015625 13.90625 C1.52703111 9.2022436 -0.31222449 5.46392857 0 0 Z " fill="#F6F4F2" transform="translate(164,84)"/>
<path d="M0 0 C6.91233755 2.60433956 14.05645343 4.57756469 21.13964844 6.66235352 C23.06066047 7.22931555 24.97765239 7.80984226 26.89453125 8.390625 C28.02713379 8.72763428 29.15973633 9.06464355 30.32666016 9.41186523 C36.02257222 11.59485142 40.09564278 14.60613176 43.54296875 19.64453125 C43.54296875 20.30453125 43.54296875 20.96453125 43.54296875 21.64453125 C44.65518799 21.22155762 45.76740723 20.79858398 46.91333008 20.36279297 C51.13658039 18.75833687 55.36247829 17.16095089 59.58911133 15.56542969 C61.40003454 14.88075975 63.2102842 14.19430503 65.01977539 13.50585938 C75.51828475 9.51309852 86.02534915 5.72569136 96.77705383 2.46505737 C100.45054721 1.59519855 100.45054721 1.59519855 103.54296875 -0.35546875 C108.18172626 -1.02636343 111.51053286 -1.07368502 115.41796875 1.64453125 C117.96643245 5.24236236 119.19393031 8.45541187 120.54296875 12.64453125 C119.88296875 13.30453125 119.22296875 13.96453125 118.54296875 14.64453125 C115.36833932 12.24210898 112.68545134 10.02739849 110.54296875 6.64453125 C110.54296875 5.98453125 110.54296875 5.32453125 110.54296875 4.64453125 C95.25360781 9.14311965 80.10167989 14.00197064 64.96679688 18.99267578 C62.12578371 19.92851118 59.28364928 20.86087664 56.44140625 21.79296875 C55.5738974 22.08037933 54.70638855 22.36778992 53.81259155 22.66390991 C53.01640411 22.92483429 52.22021667 23.18575867 51.39990234 23.45458984 C50.70077728 23.68520111 50.00165222 23.91581238 49.28134155 24.15341187 C47.54296875 24.64453125 47.54296875 24.64453125 45.54296875 24.64453125 C45.60097656 25.53914063 45.65898438 26.43375 45.71875 27.35546875 C46.06416962 36.61271451 45.2355744 43.51366402 38.828125 50.51953125 C32.92429425 55.89369666 27.45973836 57.18079978 19.55078125 57.015625 C14.02820047 56.33426763 10.51384761 53.99973149 6.98046875 49.77734375 C4.03152356 45.47121356 2.86695836 41.82836503 2.54296875 36.64453125 C1.8675 36.51175781 1.19203125 36.37898438 0.49609375 36.2421875 C-0.3959375 36.06558594 -1.28796875 35.88898438 -2.20703125 35.70703125 C-3.08875 35.53300781 -3.97046875 35.35898438 -4.87890625 35.1796875 C-7.45703125 34.64453125 -7.45703125 34.64453125 -9.640625 33.9375 C-10.24003906 33.84082031 -10.83945312 33.74414062 -11.45703125 33.64453125 C-13.14637047 35.28821265 -14.80963049 36.95881885 -16.45703125 38.64453125 C-21.43618476 41.36897373 -25.86226159 42.6357306 -31.45703125 41.64453125 C-37.13454755 39.49815314 -40.94002463 35.82641156 -43.5390625 30.375 C-45.71493393 23.90293989 -45.45931107 16.16142351 -42.89453125 9.83203125 C-39.65885417 3.60163177 -34.93645169 -2.37843774 -28.45703125 -5.35546875 C-18.92119926 -8.26537212 -8.79718848 -3.44929311 0 0 Z " fill="#030201" transform="translate(60.45703125,78.35546875)"/>
<path d="M0 0 C1.890625 0.21484375 1.890625 0.21484375 4 1 C5.046875 3.06640625 5.046875 3.06640625 5.75 5.5625 C5.99234375 6.38878906 6.2346875 7.21507812 6.484375 8.06640625 C6.65453125 8.70449219 6.8246875 9.34257812 7 10 C7.66 10 8.32 10 9 10 C32.64827048 63.41391431 32.64827048 63.41391431 32 78 C26.44425937 80.12602349 20.8482743 82.09164991 15.21704102 84.00805664 C4.06386902 87.80659471 -6.95969985 91.82261604 -17.87719727 96.25634766 C-18.77237061 96.61647949 -19.66754395 96.97661133 -20.58984375 97.34765625 C-21.37222412 97.66742432 -22.15460449 97.98719238 -22.96069336 98.31665039 C-25 99 -25 99 -28 99 C-29.45121798 97.13737755 -30.61052546 95.1692095 -31.81640625 93.140625 C-38.4870231 86.60127253 -50.46580552 85.014115 -59.22460938 82.64453125 C-60.70864258 82.21720703 -60.70864258 82.21720703 -62.22265625 81.78125 C-63.11734619 81.53439453 -64.01203613 81.28753906 -64.93383789 81.03320312 C-67 80 -67 80 -67.91870117 78.07226562 C-68.03491619 75.1100042 -66.59284545 73.62762755 -64.66210938 71.5078125 C-61.67598058 68.7988919 -58.26843335 66.9334559 -54.75 65 C-53.23193562 64.13872023 -51.71499755 63.27545211 -50.19921875 62.41015625 C-49.11326416 61.79358154 -49.11326416 61.79358154 -48.00537109 61.16455078 C-44.75634587 59.27779033 -41.65602921 57.19291255 -38.56640625 55.05859375 C-35.20798019 52.78893424 -33.05775662 52.39885087 -29 53 C-23.93392012 56.52493752 -19.6898591 61.27481381 -15.3984375 65.6796875 C-14.90898651 66.1815155 -14.41953552 66.68334351 -13.91525269 67.20037842 C-11.88296076 69.28765968 -9.85192494 71.37562439 -7.83984375 73.48242188 C-6.35000213 75.03894439 -4.84464607 76.57897473 -3.3359375 78.1171875 C-2.45470215 79.03097168 -1.5734668 79.94475586 -0.66552734 80.88623047 C2.31816488 83.25230551 4.24665517 83.72576733 8 84 C7.67 83.34 7.34 82.68 7 82 C5.36700076 77.10100227 5.34897685 71.95306944 7 67 C9.38564077 67.57584432 11.66682784 68.22227595 14 69 C14.0829674 66.75066173 14.14005249 64.50036774 14.1875 62.25 C14.22230469 60.99703125 14.25710937 59.7440625 14.29296875 58.453125 C13.98826877 48.34294533 9.95852086 38.63543412 6.375 29.3125 C5.96765625 28.23033203 5.5603125 27.14816406 5.140625 26.03320312 C3.64331669 21.17931259 3.64331669 21.17931259 1 17 C0.83918945 17.67353516 0.67837891 18.34707031 0.51269531 19.04101562 C-0.78853264 24.48723932 -2.09538946 29.93202777 -3.41015625 35.375 C-4.35898708 39.3073954 -5.28932986 43.24235693 -6.18359375 47.1875 C-6.35600586 47.92806641 -6.52841797 48.66863281 -6.70605469 49.43164062 C-7.15950038 51.37970953 -7.60161067 53.33040698 -8.04296875 55.28125 C-8.51669922 56.62703125 -8.51669922 56.62703125 -9 58 C-9.99 58.33 -10.98 58.66 -12 59 C-13.82421875 58.00390625 -13.82421875 58.00390625 -15.6875 56.5625 C-16.31011719 56.08941406 -16.93273437 55.61632813 -17.57421875 55.12890625 C-18.04472656 54.75636719 -18.51523438 54.38382813 -19 54 C-17.10764148 41.28022933 -12.45345745 29.20333802 -7.875 17.25 C-7.44324463 16.11916992 -7.01148926 14.98833984 -6.56665039 13.82324219 C-4.67120202 8.94912733 -2.79628992 4.43660547 0 0 Z " fill="#FCB930" transform="translate(132,1)"/>
<path d="M0 0 C0.1556543 0.60658447 0.31130859 1.21316895 0.47167969 1.83813477 C2.28510555 8.41844262 4.93051136 13.99891329 8.25 19.9375 C20.46686507 42.62308657 25.70716156 66.11888024 28.69580078 91.55224609 C29.19542463 95.57249386 29.8946842 99.55310342 30.58984375 103.54296875 C31.22677459 107.35848777 31.68392477 111.14388215 32 115 C31 116 31 116 28.93359375 116.09765625 C28.10988281 116.08605469 27.28617188 116.07445312 26.4375 116.0625 C25.19806641 116.04896484 25.19806641 116.04896484 23.93359375 116.03515625 C22.97646484 116.01775391 22.97646484 116.01775391 22 116 C22 115.67 22 115.34 22 115 C24.31 114.67 26.62 114.34 29 114 C21.61035253 102.13594443 14.20191434 90.28551251 6.6875 78.5 C6.11555908 77.59958984 5.54361816 76.69917969 4.9543457 75.77148438 C2.28329872 71.56791986 -0.4026506 67.37638451 -3.1328125 63.2109375 C-4.06773423 61.76564175 -5.00263166 60.32033028 -5.9375 58.875 C-6.36909424 58.22982422 -6.80068848 57.58464844 -7.24536133 56.91992188 C-9.98957443 52.64406841 -9.98957443 52.64406841 -10.03515625 49.828125 C-8.59246397 47.28027599 -6.74531902 45.7437307 -4.5 43.875 C0.1135901 40.05175298 0.1135901 40.05175298 1.4375 34.3125 C1.33738873 23.96766844 -5.252657 12.92752555 -10 4 C-7.10479625 2.06986417 -3.61773326 0 0 0 Z " fill="#FB9C68" transform="translate(164,84)"/>
<path d="M0 0 C1.890625 0.21484375 1.890625 0.21484375 4 1 C5.046875 3.06640625 5.046875 3.06640625 5.75 5.5625 C5.99234375 6.38878906 6.2346875 7.21507812 6.484375 8.06640625 C6.65453125 8.70449219 6.8246875 9.34257812 7 10 C7.66 10 8.32 10 9 10 C32.64827048 63.41391431 32.64827048 63.41391431 32 78 C27.64125108 79.69506902 23.27403441 81.282819 18.8125 82.6875 C18.01457031 82.93886719 17.21664062 83.19023438 16.39453125 83.44921875 C13.80997617 84.04370858 11.64210662 84.23653995 9 84 C6.39893833 81.12986298 5.81326004 78.69795791 5.75 74.9375 C5.93193773 72.07198077 6.10125283 69.69624151 7 67 C9.38564077 67.57584432 11.66682784 68.22227595 14 69 C14.0829674 66.75066173 14.14005249 64.50036774 14.1875 62.25 C14.22230469 60.99703125 14.25710937 59.7440625 14.29296875 58.453125 C13.98826877 48.34294533 9.95852086 38.63543412 6.375 29.3125 C5.96765625 28.23033203 5.5603125 27.14816406 5.140625 26.03320312 C3.64331669 21.17931259 3.64331669 21.17931259 1 17 C0.83918945 17.67353516 0.67837891 18.34707031 0.51269531 19.04101562 C-0.78853264 24.48723932 -2.09538946 29.93202777 -3.41015625 35.375 C-4.35898708 39.3073954 -5.28932986 43.24235693 -6.18359375 47.1875 C-6.35600586 47.92806641 -6.52841797 48.66863281 -6.70605469 49.43164062 C-7.15950038 51.37970953 -7.60161067 53.33040698 -8.04296875 55.28125 C-8.35878906 56.1784375 -8.67460938 57.075625 -9 58 C-10.485 58.495 -10.485 58.495 -12 59 C-13.82421875 58.00390625 -13.82421875 58.00390625 -15.6875 56.5625 C-16.31011719 56.08941406 -16.93273437 55.61632813 -17.57421875 55.12890625 C-18.04472656 54.75636719 -18.51523438 54.38382813 -19 54 C-17.10764148 41.28022933 -12.45345745 29.20333802 -7.875 17.25 C-7.44324463 16.11916992 -7.01148926 14.98833984 -6.56665039 13.82324219 C-4.67120202 8.94912733 -2.79628992 4.43660547 0 0 Z " fill="#FDB831" transform="translate(132,1)"/>
<path d="M0 0 C2.68432599 1.62228776 5.07966286 3.23666403 7.0625 5.6875 C7.43017401 12.67330625 4.55253257 16.24819279 0.16796875 21.48828125 C-1.77653252 23.51936513 -3.55675662 25.19530993 -5.9375 26.6875 C-6.9275 26.6875 -7.9175 26.6875 -8.9375 26.6875 C-9.2675 27.3475 -9.5975 28.0075 -9.9375 28.6875 C-16.37995219 24.73417707 -20.95606366 20.16814009 -22.9375 12.6875 C-23.31792648 9.30992977 -23.5357823 6.04257331 -22.9375 2.6875 C-17.30156482 -4.27453757 -7.31800521 -3.96342207 0 0 Z " fill="#010101" transform="translate(22.9375,122.3125)"/>
<path d="M0 0 C0.66 0 1.32 0 2 0 C2.4021875 1.14662109 2.4021875 1.14662109 2.8125 2.31640625 C5.10474478 8.58237799 7.63315742 14.37148189 10.875 20.1875 C22.71493572 41.78715664 27.9471096 65.73210854 31 90 C31.19479275 91.48183925 31.39009191 92.96361203 31.5859375 94.4453125 C32.51942516 101.61686846 33.34210317 108.79776107 34 116 C30.93348063 118.04434624 30.06658485 118.28003979 26.5660553 118.46829224 C25.20544731 118.54814362 25.20544731 118.54814362 23.81735229 118.62960815 C22.82454254 118.67852203 21.83173279 118.72743591 20.80883789 118.77783203 C19.76143936 118.83664551 18.71404083 118.89545898 17.63490295 118.95605469 C14.16457073 119.14870641 10.69369274 119.32833474 7.22265625 119.5078125 C4.81509805 119.63871041 2.40758189 119.7703836 0.00010681 119.90280151 C-6.34535613 120.2495818 -12.69136436 120.58519018 -19.03753662 120.91870117 C-24.21949703 121.19281461 -29.40103048 121.47453091 -34.58255672 121.75671577 C-45.28109392 122.33934693 -55.97990977 122.91690204 -66.67944336 123.48095703 C-67.67022888 123.53391937 -68.6610144 123.58688171 -69.68182373 123.64144897 C-70.59171555 123.68904358 -71.50160736 123.73663818 -72.43907166 123.78567505 C-73.22791717 123.82732347 -74.01676268 123.8689719 -74.8295126 123.9118824 C-76.88485833 123.99532547 -78.94296115 124 -81 124 C-81.08243693 122.62605116 -81.1398309 121.25059402 -81.1875 119.875 C-81.22230469 119.10929687 -81.25710937 118.34359375 -81.29296875 117.5546875 C-81 115 -81 115 -79.4765625 112.11328125 C-77.73201472 108.43496225 -77.79772497 106.33406115 -78.1875 102.3125 C-78.30222656 101.09433594 -78.41695313 99.87617188 -78.53515625 98.62109375 C-79.06827477 94.46814532 -79.78847719 90.39165761 -80.6953125 86.3046875 C-81.01524829 83.88466034 -80.75328847 82.30230421 -80 80 C-77.04070531 89.08261514 -72.49975965 103.79785936 -76.94921875 112.953125 C-77.29597656 113.62859375 -77.64273438 114.3040625 -78 115 C-78.36312397 117.32888311 -78.69890034 119.66228861 -79 122 C-77.83766846 121.91435791 -76.67533691 121.82871582 -75.4777832 121.74047852 C-71.05512712 121.4153421 -66.63221528 121.09379724 -62.20922852 120.77319336 C-60.31560527 120.6354608 -58.42204732 120.49682687 -56.52856445 120.35717773 C-45.45727116 119.54133622 -34.39276147 118.84217452 -23.30233765 118.34632874 C-16.33542155 118.03070659 -9.38923452 117.55882983 -2.4375 117 C8.70207551 116.13763286 19.8379665 115.48364569 31 115 C30.50220673 110.26385262 29.98396885 105.56165462 29.125 100.875 C28.42908647 96.87730693 27.85235121 92.88449269 27.37890625 88.85546875 C24.19297655 61.86440228 17.2599772 37.77671145 4.1015625 13.90625 C1.52703111 9.2022436 -0.31222449 5.46392857 0 0 Z " fill="#FDF7EF" transform="translate(164,84)"/>
<path d="M0 0 C3.26859002 0.58134873 4.8912158 1.52155151 7.20703125 3.87890625 C7.79000977 4.46639648 8.37298828 5.05388672 8.97363281 5.65917969 C9.58045898 6.28727539 10.18728516 6.91537109 10.8125 7.5625 C11.44124023 8.20219727 12.06998047 8.84189453 12.71777344 9.50097656 C16.37394888 13.24452035 19.90998029 17.05613035 23.2734375 21.06640625 C26.29452434 24.44975011 29.64943826 27.50906689 32.9609375 30.60546875 C35.14515134 33.17045551 35.6825926 34.69073393 36 38 C32.5284778 40.10498168 29.59034538 40.38824475 25.5625 40.5 C24.45003906 40.5515625 23.33757812 40.603125 22.19140625 40.65625 C17.94089381 39.78221562 16.38000343 37.40106612 14 34 C12.71805538 31.66719525 11.55242143 29.40254996 10.44921875 26.9921875 C10.14554886 26.34428253 9.84187897 25.69637756 9.52900696 25.02883911 C8.89539286 23.67117208 8.26621959 22.31142428 7.64135742 20.94970703 C6.68425296 18.86793746 5.70942614 16.79514888 4.73242188 14.72265625 C4.11611912 13.39632925 3.50084781 12.06952238 2.88671875 10.7421875 C2.33201904 9.5444873 1.77731934 8.34678711 1.20581055 7.11279297 C0 4 0 4 0 0 Z " fill="#FCB830" transform="translate(69,4)"/>
<path d="M0 0 C2.80269215 3.3580861 4.46639476 7.01463943 6.14453125 11.01171875 C6.58055664 12.0335022 6.58055664 12.0335022 7.02539062 13.07592773 C7.96147192 15.2768823 8.88812917 17.48160352 9.8125 19.6875 C10.12714203 20.43609283 10.44178406 21.18468567 10.76596069 21.95596313 C23.9536494 53.37638594 23.9536494 53.37638594 24 68 C15.57142857 71.28571429 15.57142857 71.28571429 11 72 C12.81958763 67.32106038 12.81958763 67.32106038 13.95703125 65.296875 C18.03299928 56.32058585 18.03371872 47.30056571 14.88671875 38.078125 C12.17889577 30.94092702 9.12700819 23.96166741 6 17 C5.01732979 14.7399872 4.04412402 12.47630406 3.07617188 10.20996094 C2.37775751 8.58896084 1.6530783 6.97934216 0.92578125 5.37109375 C0 3 0 3 0 0 Z " fill="#F79E6A" transform="translate(140,11)"/>
<path d="M0 0 C1.66611905 -0.042721 3.33382885 -0.04063832 5 0 C5.33 0.33 5.66 0.66 6 1 C5.71269945 3.33944736 5.38063221 5.6739143 5 8 C5.804375 8.268125 6.60875 8.53625 7.4375 8.8125 C8.283125 9.204375 9.12875 9.59625 10 10 C10.33 10.99 10.66 11.98 11 13 C10.01 14.485 10.01 14.485 9 16 C6.69 15.67 4.38 15.34 2 15 C1.01 17.475 1.01 17.475 0 20 C-1.65 19.67 -3.3 19.34 -5 19 C-5.68707555 16.50935112 -6 14.62113708 -6 12 C-7.32 11.34 -8.64 10.68 -10 10 C-9.67 8.35 -9.34 6.7 -9 5 C-6.50935112 4.31292445 -4.62113708 4 -2 4 C-1.34 2.68 -0.68 1.36 0 0 Z " fill="#F6F6F6" transform="translate(33,88)"/>
<path d="M0 0 C5.23501137 1.48160699 8.2072201 4.82684526 11.875 8.625 C12.49850342 9.25946045 13.12200684 9.8939209 13.7644043 10.54760742 C17.4222113 14.29354282 20.9538238 18.11544942 24.3359375 22.11328125 C27.69767296 25.92482638 31.37098859 29.44505005 35 33 C34.505 33.99 34.505 33.99 34 35 C31.47483195 32.50434749 28.95570627 30.00267549 26.4375 27.5 C25.73302734 26.80390625 25.02855469 26.1078125 24.30273438 25.390625 C19.65280341 20.76212229 15.27871106 15.97116774 11 11 C9.62463958 9.46062726 8.23358401 7.93476583 6.8125 6.4375 C6.17957031 5.75558594 5.54664062 5.07367187 4.89453125 4.37109375 C3.10250699 2.76345651 3.10250699 2.76345651 0.88671875 3.16015625 C-1.18727853 3.94831768 -1.18727853 3.94831768 -3 6 C-3.18461061 8.08263204 -3.18461061 8.08263204 -2.9765625 10.50390625 C-2.8986145 11.93295288 -2.8986145 11.93295288 -2.8190918 13.39086914 C-2.72301636 14.96082642 -2.72301636 14.96082642 -2.625 16.5625 C-2.13920112 26.49889315 -1.79687941 36.42782964 -1.71087646 46.37545776 C-1.69540676 47.82276357 -1.67244808 49.27001049 -1.6416626 50.71707153 C-1.43148685 60.91383803 -2.25781645 67.90937974 -9 76 C-9.99 75.67 -10.98 75.34 -12 75 C-11.57847656 74.45730469 -11.15695313 73.91460937 -10.72265625 73.35546875 C-10.17480469 72.64003906 -9.62695312 71.92460938 -9.0625 71.1875 C-8.51722656 70.47980469 -7.97195312 69.77210937 -7.41015625 69.04296875 C-4.76257312 65.20727352 -4.87142382 61.90307729 -4.8671875 57.3671875 C-4.86609482 56.7060495 -4.86500214 56.0449115 -4.86387634 55.36373901 C-4.8629748 53.94085627 -4.86470932 52.51796991 -4.86880493 51.09509277 C-4.87502939 48.86446618 -4.87263388 46.63395186 -4.86987305 44.40332031 C-4.87598464 37.39688084 -4.98181399 30.42602902 -5.40234375 23.4296875 C-5.4688916 22.29418457 -5.53543945 21.15868164 -5.60400391 19.98876953 C-5.74000733 17.87609802 -5.89879051 15.76473344 -6.08349609 13.65576172 C-6.53689386 6.68819245 -6.53689386 6.68819245 -3.57421875 2.890625 C-2.72472656 2.26671875 -1.87523438 1.6428125 -1 1 C-0.67 0.67 -0.34 0.34 0 0 Z " fill="#FDF9F1" transform="translate(69,2)"/>
<path d="M0 0 C-0.33 0.66 -0.66 1.32 -1 2 C-10.41652694 4.67895503 -20.29326069 5.60110341 -30.00390625 6.5703125 C-33.36358509 6.91035127 -36.67532408 7.4012432 -40 8 C-40.33 8.99 -40.66 9.98 -41 11 C-41.33 10.34 -41.66 9.68 -42 9 C-51.405 9.99 -51.405 9.99 -61 11 C-58.08733476 8.08733476 -57.24852327 7.51304733 -53.52734375 6.46484375 C-52.63692383 6.2136377 -51.74650391 5.96243164 -50.82910156 5.70361328 C-49.87487305 5.4507959 -48.92064453 5.19797852 -47.9375 4.9375 C-46.95104492 4.67437012 -45.96458984 4.41124023 -44.94824219 4.14013672 C-29.9974996 0.30729246 -15.37015257 -0.32702452 0 0 Z " fill="#AED6E3" transform="translate(124,154)"/>
<path d="M0 0 C1.33333333 1.66666667 2.66666667 3.33333333 4 5 C5.11375 6.2065625 5.11375 6.2065625 6.25 7.4375 C8.40319291 10.59038962 8.39885402 12.25077224 8 16 C7.68188361 17.33704557 7.35145507 18.6713284 7 20 C7.92683594 20.26554687 8.85367187 20.53109375 9.80859375 20.8046875 C11.00613281 21.15789062 12.20367187 21.51109375 13.4375 21.875 C14.63246094 22.22304687 15.82742187 22.57109375 17.05859375 22.9296875 C20 24 20 24 21 26 C14.8012259 25.5080338 8.5926241 24.92832678 3 22 C1.14432265 19.03091623 1 17.48458474 1 14 C-0.3921875 13.3503125 -0.3921875 13.3503125 -1.8125 12.6875 C-6.24390244 10.34146341 -6.24390244 10.34146341 -8 8 C-8 7.01 -8 6.02 -8 5 C-7.05125 4.54625 -6.1025 4.0925 -5.125 3.625 C-1.99686321 2.19761746 -1.99686321 2.19761746 0 0 Z " fill="#ABD6E7" transform="translate(22,144)"/>
<path d="M0 0 C1.98 0 3.96 0 6 0 C6.69965443 1.26418246 7.38434763 2.53665402 8.0625 3.8125 C8.44535156 4.52019531 8.82820313 5.22789063 9.22265625 5.95703125 C10 8 10 8 9 11 C7.68 8.03 6.36 5.06 5 2 C3.68 2.33 2.36 2.66 1 3 C-0.42547708 5.49953606 -0.42547708 5.49953606 -1.4375 8.65234375 C-1.85773438 9.82216797 -2.27796875 10.99199219 -2.7109375 12.19726562 C-3.13632813 13.43154297 -3.56171875 14.66582031 -4 15.9375 C-4.85305055 18.34284404 -5.70720073 20.7477984 -6.5625 23.15234375 C-6.97371094 24.3110498 -7.38492188 25.46975586 -7.80859375 26.66357422 C-8.20175781 27.76459473 -8.59492187 28.86561523 -9 30 C-9.36222656 31.01465332 -9.72445312 32.02930664 -10.09765625 33.07470703 C-10.60619141 34.43184814 -10.60619141 34.43184814 -11.125 35.81640625 C-11.41632813 36.6060376 -11.70765625 37.39566895 -12.0078125 38.20922852 C-13 40 -13 40 -16 41 C-17.39439664 41.06665376 -18.79169875 41.08538199 -20.1875 41.0625 C-21.445625 41.041875 -22.70375 41.02125 -24 41 C-24.66 39.68 -25.32 38.36 -26 37 C-25.34 37.33 -24.68 37.66 -24 38 C-22.45386986 37.91348369 -20.91090613 37.75997364 -19.375 37.5625 C-18.14910156 37.40974609 -18.14910156 37.40974609 -16.8984375 37.25390625 C-16.27195312 37.17011719 -15.64546875 37.08632813 -15 37 C-14.58113525 35.95021973 -14.16227051 34.90043945 -13.73071289 33.81884766 C-12.17917553 29.9309668 -10.62650412 26.0435397 -9.07348633 22.15625 C-8.40097514 20.47245478 -7.72877322 18.788536 -7.05688477 17.10449219 C-6.09211855 14.6865246 -5.12624775 12.26900083 -4.16015625 9.8515625 C-3.85908463 9.0963028 -3.558013 8.34104309 -3.24781799 7.56289673 C-1.11387171 2.22774341 -1.11387171 2.22774341 0 0 Z " fill="#FDF8EA" transform="translate(130,0)"/>
<path d="M0 0 C2.80269215 3.3580861 4.46639476 7.01463943 6.14453125 11.01171875 C6.58055664 12.0335022 6.58055664 12.0335022 7.02539062 13.07592773 C7.96147192 15.2768823 8.88812917 17.48160352 9.8125 19.6875 C10.12714203 20.43609283 10.44178406 21.18468567 10.76596069 21.95596313 C23.9536494 53.37638594 23.9536494 53.37638594 24 68 C23.34 68 22.68 68 22 68 C21.93425781 67.08347656 21.86851562 66.16695313 21.80078125 65.22265625 C20.59691591 53.86500597 16.91081608 43.77040663 12.6875 33.25 C12.40750153 32.55238556 12.12750305 31.85477112 11.83901978 31.13601685 C9.38315607 25.04986234 6.87752886 18.98649223 4.24462891 12.97460938 C3.96512894 12.33400574 3.68562897 11.6934021 3.3976593 11.03338623 C2.62991193 9.28115328 1.85392277 7.53253811 1.07739258 5.78417969 C0 3 0 3 0 0 Z " fill="#FEF8EF" transform="translate(140,11)"/>
<path d="M0 0 C0.33 0 0.66 0 1 0 C2.49166664 6.26019531 2.26126746 12.63972439 2.29516602 19.03686523 C2.30668182 20.54867922 2.32712771 22.06045268 2.35668945 23.57202148 C2.56194211 34.08577349 2.03315628 41.56021247 -5 50 C-5.99 49.67 -6.98 49.34 -8 49 C-7.57847656 48.45730469 -7.15695313 47.91460937 -6.72265625 47.35546875 C-5.90087891 46.28232422 -5.90087891 46.28232422 -5.0625 45.1875 C-4.51722656 44.47980469 -3.97195312 43.77210937 -3.41015625 43.04296875 C-0.47670034 38.79311434 -0.78533877 34.36060191 -0.68359375 29.39453125 C-0.66281265 28.55532639 -0.64203156 27.71612152 -0.62062073 26.85148621 C-0.55525982 24.17190706 -0.49630286 21.49223031 -0.4375 18.8125 C-0.39430198 16.99543263 -0.35068727 15.17837512 -0.30664062 13.36132812 C-0.1995922 8.90765201 -0.09828681 4.45387774 0 0 Z " fill="#FEEEE6" transform="translate(65,28)"/>
<path d="M0 0 C2.625 0.375 2.625 0.375 5 1 C5.625 3.375 5.625 3.375 6 6 C5.34 6.66 4.68 7.32 4 8 C1.375 7.625 1.375 7.625 -1 7 C-1.625 4.625 -1.625 4.625 -2 2 C-1.34 1.34 -0.68 0.68 0 0 Z " fill="#EDEDED" transform="translate(80,118)"/>
<path d="M0 0 C2.625 0.375 2.625 0.375 5 1 C5.625 3.375 5.625 3.375 6 6 C5.34 6.66 4.68 7.32 4 8 C1.375 7.625 1.375 7.625 -1 7 C-1.625 4.625 -1.625 4.625 -2 2 C-1.34 1.34 -0.68 0.68 0 0 Z " fill="#EDEDED" transform="translate(83,102)"/>
<path d="M0 0 C0 0.66 0 1.32 0 2 C-10.47349744 2.76405986 -20.53680693 3.20160344 -31 2 C-31 1.67 -31 1.34 -31 1 C-20.6510926 0.34956362 -10.3734499 -0.16494885 0 0 Z " fill="#FDF0D5" transform="translate(188,200)"/>
<path d="M0 0 C2.5 0.125 2.5 0.125 3.5 1.125 C3.625 3.625 3.625 3.625 3.5 6.125 C2.5 7.125 2.5 7.125 0.0625 7.3125 C-2.5 7.125 -2.5 7.125 -4.5 5.125 C-3.7519084 0.18759542 -3.7519084 0.18759542 0 0 Z " fill="#F3F3F3" transform="translate(92.5,110.875)"/>
<path d="M0 0 C2.5625 0.1875 2.5625 0.1875 4.5625 2.1875 C4.02678571 5.72321429 4.02678571 5.72321429 2.5625 7.1875 C0.0625 7.3125 0.0625 7.3125 -2.4375 7.1875 C-3.4375 6.1875 -3.4375 6.1875 -3.5625 3.6875 C-3.39599509 0.35740177 -3.31519894 0.2550153 0 0 Z " fill="#F2F2F2" transform="translate(75.4375,108.8125)"/>
<path d="M0 0 C0.33 0 0.66 0 1 0 C1.93854006 7.03905044 2.10808032 13.90272572 2 21 C1.34 21.33 0.68 21.66 0 22 C-1.92868325 6.81161941 -1.92868325 6.81161941 0 0 Z " fill="#FCEDE4" transform="translate(193,165)"/>
<path d="M0 0 C0.66 0.66 1.32 1.32 2 2 C1.67 2.66 1.34 3.32 1 4 C-1.75078884 4.91692961 -3.35948913 5.10886083 -6.1875 5.0625 C-8.0746875 5.0315625 -8.0746875 5.0315625 -10 5 C-10.66 3.68 -11.32 2.36 -12 1 C-11.01 1.495 -11.01 1.495 -10 2 C-7.81560378 1.93947319 -7.81560378 1.93947319 -5.4375 1.625 C-4.22900391 1.48964844 -4.22900391 1.48964844 -2.99609375 1.3515625 C-1.00673324 1.1979788 -1.00673324 1.1979788 0 0 Z " fill="#FCEFE1" transform="translate(116,36)"/>
<path d="M0 0 C1.77111844 0.47811177 3.54188483 0.9575278 5.3125 1.4375 C6.29863281 1.70433594 7.28476562 1.97117187 8.30078125 2.24609375 C10.21517526 2.78079425 12.11433615 3.37144538 14 4 C14 4.66 14 5.32 14 6 C8.54520815 5.43179252 4.08940744 4.05362055 -1 2 C-0.67 1.34 -0.34 0.68 0 0 Z " fill="#E9BA49" transform="translate(49,111)"/>
<path d="M0 0 C0.66 0.33 1.32 0.66 2 1 C1.67 3.31 1.34 5.62 1 8 C2.32 8.33 3.64 8.66 5 9 C3.02 9.33 1.04 9.66 -1 10 C-1.02689216 8.52093108 -1.04634621 7.04172517 -1.0625 5.5625 C-1.07410156 4.73878906 -1.08570312 3.91507813 -1.09765625 3.06640625 C-1 1 -1 1 0 0 Z " fill="#FEF4DE" transform="translate(84,198)"/>
<path d="M0 0 C0.33 0.66 0.66 1.32 1 2 C2.65 1.67 4.3 1.34 6 1 C3.47524538 3.52475462 1.26502003 4.04307871 -2.125 5.125 C-3.22070312 5.47820312 -4.31640625 5.83140625 -5.4453125 6.1953125 C-6.28835937 6.46085937 -7.13140625 6.72640625 -8 7 C-8 6.34 -8 5.68 -8 5 C-5.36095629 3.58622659 -2.92879371 2.62759865 0 2 C0 1.34 0 0.68 0 0 Z " fill="#F4BF41" transform="translate(140,83)"/>
<path d="M0 0 C-1.41519715 2.0343459 -2.54982123 2.90410393 -4.98046875 3.421875 C-6.98176954 3.66273952 -8.9909944 3.83532741 -11 4 C-7.64191281 0.32209498 -4.88401581 -0.13200043 0 0 Z " fill="#A4D3E4" transform="translate(74,161)"/>
<path d="M0 0 C1 3 1 3 0 6 C-2.97 5.505 -2.97 5.505 -6 5 C-3.375 1.125 -3.375 1.125 0 0 Z " fill="#E89566" transform="translate(64,74)"/>
<path d="M0 0 C0.99 0.33 1.98 0.66 3 1 C0.525 4.465 0.525 4.465 -2 8 C-2.99 7.67 -3.98 7.34 -5 7 C-3.35 4.69 -1.7 2.38 0 0 Z " fill="#F9EDE5" transform="translate(62,70)"/>
<path d="M0 0 C0.33 0 0.66 0 1 0 C1 5.94 1 11.88 1 18 C0.67 18 0.34 18 0 18 C0 12.06 0 6.12 0 0 Z " fill="#FEFEFE" transform="translate(62,14)"/>
<path d="M0 0 C3.96 0 7.92 0 12 0 C12 0.33 12 0.66 12 1 C8.04 1 4.08 1 0 1 C0 0.67 0 0.34 0 0 Z " fill="#FDFBF7" transform="translate(108,207)"/>
<path d="M0 0 C3.96 0 7.92 0 12 0 C12 0.33 12 0.66 12 1 C8.04 1 4.08 1 0 1 C0 0.67 0 0.34 0 0 Z " fill="#FEFEFE" transform="translate(181,203)"/>
<path d="M0 0 C0.33 0 0.66 0 1 0 C1 3.96 1 7.92 1 12 C0.67 12 0.34 12 0 12 C0 8.04 0 4.08 0 0 Z " fill="#000000" transform="translate(14,94)"/>
<path d="M0 0 C3.63 0 7.26 0 11 0 C11 0.33 11 0.66 11 1 C7.37 1 3.74 1 0 1 C0 0.67 0 0.34 0 0 Z " fill="#FDFAEF" transform="translate(90,208)"/>
<path d="M0 0 C3.63 0 7.26 0 11 0 C11 0.33 11 0.66 11 1 C7.37 1 3.74 1 0 1 C0 0.67 0 0.34 0 0 Z " fill="#FEFDFC" transform="translate(127,206)"/>
<path d="M0 0 C3.63 0 7.26 0 11 0 C11 0.33 11 0.66 11 1 C7.37 1 3.74 1 0 1 C0 0.67 0 0.34 0 0 Z " fill="#FEFEFE" transform="translate(146,205)"/>
<path d="M0 0 C3.3 0 6.6 0 10 0 C10 0.33 10 0.66 10 1 C6.7 1 3.4 1 0 1 C0 0.67 0 0.34 0 0 Z " fill="#FFFFFF" transform="translate(164,204)"/>
<path d="M0 0 C0.33 0 0.66 0 1 0 C1 2.64 1 5.28 1 8 C0.67 8 0.34 8 0 8 C0 5.36 0 2.72 0 0 Z " fill="#FEFFFF" transform="translate(81,199)"/>
<path d="M0 0 C2.64 0 5.28 0 8 0 C8 0.33 8 0.66 8 1 C5.36 1 2.72 1 0 1 C0 0.67 0 0.34 0 0 Z " fill="#FEFEFC" transform="translate(43,170)"/>
<path d="M0 0 C0.33 0 0.66 0 1 0 C1 2.31 1 4.62 1 7 C0.67 7 0.34 7 0 7 C0 4.69 0 2.38 0 0 Z " fill="#FEFCFB" transform="translate(84,179)"/>
<path d="M0 0 C2.31 0 4.62 0 7 0 C7 0.33 7 0.66 7 1 C4.69 1 2.38 1 0 1 C0 0.67 0 0.34 0 0 Z " fill="#000000" transform="translate(8,118)"/>
<path d="M0 0 C0.33 0.66 0.66 1.32 1 2 C3.02463255 2.65213292 3.02463255 2.65213292 5 3 C3.35 3 1.7 3 0 3 C0 2.01 0 1.02 0 0 Z " fill="#616161" transform="translate(165,74)"/>
<path d="M0 0 C0.33 0 0.66 0 1 0 C1 1.98 1 3.96 1 6 C0.67 6 0.34 6 0 6 C0 4.02 0 2.04 0 0 Z " fill="#FFFFFF" transform="translate(195,167)"/>
<path d="M0 0 C0.33 0 0.66 0 1 0 C1 1.98 1 3.96 1 6 C0.67 6 0.34 6 0 6 C0 4.02 0 2.04 0 0 Z " fill="#FEFDFD" transform="translate(63,60)"/>
<path d="M0 0 C0.33 0 0.66 0 1 0 C1 1.65 1 3.3 1 5 C0.67 5 0.34 5 0 5 C0 3.35 0 1.7 0 0 Z " fill="#FEFEFD" transform="translate(85,188)"/>
<path d="M0 0 C0.33 0 0.66 0 1 0 C1 1.65 1 3.3 1 5 C0.67 5 0.34 5 0 5 C0 3.35 0 1.7 0 0 Z " fill="#FFFFFF" transform="translate(196,178)"/>
<path d="M0 0 C0.33 0 0.66 0 1 0 C1 1.65 1 3.3 1 5 C0.67 5 0.34 5 0 5 C0 3.35 0 1.7 0 0 Z " fill="#FEFEFE" transform="translate(83,173)"/>
<path d="M0 0 C0.99 0 1.98 0 3 0 C2.67 0.99 2.34 1.98 2 3 C2 2.34 2 1.68 2 1 C1.34 0.67 0.68 0.34 0 0 Z " fill="#B0DDED" transform="translate(20,158)"/>
<path d="M0 0 C1.65 0 3.3 0 5 0 C5 0.33 5 0.66 5 1 C3.35 1 1.7 1 0 1 C0 0.67 0 0.34 0 0 Z " fill="#FFFFFF" transform="translate(107,37)"/>
<path d="M0 0 C1 4 1 4 1 4 Z " fill="#FEFEFE" transform="translate(197,185)"/>
<path d="M0 0 C1 4 1 4 1 4 Z " fill="#FEFDFC" transform="translate(82,168)"/>
<path d="M0 0 C4 1 4 1 4 1 Z " fill="#F9F8F6" transform="translate(51,169)"/>
<path d="M0 0 C4 1 4 1 4 1 Z " fill="#E5F9FE" transform="translate(61,166)"/>
<path d="M0 0 C4 1 4 1 4 1 Z " fill="#BBE8F6" transform="translate(66,165)"/>
<path d="M0 0 C4 1 4 1 4 1 Z " fill="#B8E5F4" transform="translate(71,164)"/>
<path d="M0 0 C1 4 1 4 1 4 Z " fill="#FFFFFF" transform="translate(194,160)"/>
<path d="M0 0 C1 4 1 4 1 4 Z " fill="#FFFFFF" transform="translate(164,66)"/>
<path d="M0 0 C3 1 3 1 3 1 Z " fill="#B4E2F0" transform="translate(35,170)"/>
<path d="M0 0 C3 1 3 1 3 1 Z " fill="#ACD8EA" transform="translate(31,169)"/>
<path d="M0 0 C3 1 3 1 3 1 Z " fill="#FBFAF8" transform="translate(55,168)"/>
<path d="" fill="#FEFFFF" transform="translate(0,0)"/>
<path d="" fill="#FFFFFF" transform="translate(0,0)"/>
<path d="" fill="#FFFFFF" transform="translate(0,0)"/>
<path d="" fill="#000000" transform="translate(0,0)"/>
<path d="M0 0 C3 1 3 1 3 1 Z " fill="#3A3A3A" transform="translate(55,75)"/>
<path d="M0 0 C3 1 3 1 3 1 Z " fill="#000000" transform="translate(45,72)"/>
<path d="M0 0 C3 1 3 1 3 1 Z " fill="#000000" transform="translate(42,71)"/>
<path d="M0 0 C3 1 3 1 3 1 Z " fill="#000000" transform="translate(37,70)"/>
<path d="" fill="#FEFEFE" transform="translate(0,0)"/>
<path d="" fill="#FEFEFE" transform="translate(0,0)"/>
<path d="" fill="#FEFEFE" transform="translate(0,0)"/>
<path d="M0 0 C2 1 2 1 2 1 Z " fill="#BBE8F6" transform="translate(27,168)"/>
<path d="M0 0 C2 1 2 1 2 1 Z " fill="#FEFDFB" transform="translate(58,167)"/>
<path d="M0 0 C2 1 2 1 2 1 Z " fill="#AAD7E8" transform="translate(25,167)"/>
<path d="" fill="#ABD9EA" transform="translate(0,0)"/>
<path d="M0 0 C2 1 2 1 2 1 Z " fill="#C6F2FE" transform="translate(18,157)"/>
<path d="M0 0 C2 1 2 1 2 1 Z " fill="#63797F" transform="translate(11,151)"/>
<path d="" fill="#FFFFFF" transform="translate(0,0)"/>
<path d="" fill="#000000" transform="translate(0,0)"/>
<path d="" fill="#FFFFFF" transform="translate(0,0)"/>
<path d="" fill="#000000" transform="translate(0,0)"/>
<path d="" fill="#FFFFFF" transform="translate(0,0)"/>
<path d="" fill="#000000" transform="translate(0,0)"/>
<path d="" fill="#FFFFFF" transform="translate(0,0)"/>
<path d="" fill="#FFFFFF" transform="translate(0,0)"/>
<path d="" fill="#FFFFFF" transform="translate(0,0)"/>
<path d="M0 0 C2 1 2 1 2 1 Z " fill="#000000" transform="translate(6,119)"/>
<path d="" fill="#FFFFFF" transform="translate(0,0)"/>
<path d="M0 0 C2 1 2 1 2 1 Z " fill="#FEFEFC" transform="translate(17,116)"/>
<path d="M0 0 C2 1 2 1 2 1 Z " fill="#B7B7B7" transform="translate(19,115)"/>
<path d="" fill="#000000" transform="translate(0,0)"/>
<path d="" fill="#000000" transform="translate(0,0)"/>
<path d="" fill="#000000" transform="translate(0,0)"/>
<path d="" fill="#FEFDFD" transform="translate(0,0)"/>
<path d="M0 0 C2 1 2 1 2 1 Z " fill="#000000" transform="translate(177,93)"/>
<path d="" fill="#FEFDFD" transform="translate(0,0)"/>
<path d="" fill="#FFFFFE" transform="translate(0,0)"/>
<path d="" fill="#000000" transform="translate(0,0)"/>
<path d="" fill="#000000" transform="translate(0,0)"/>
<path d="" fill="#000000" transform="translate(0,0)"/>
<path d="" fill="#000000" transform="translate(0,0)"/>
<path d="" fill="#000000" transform="translate(0,0)"/>
<path d="M0 0 C2 1 2 1 2 1 Z " fill="#000101" transform="translate(168,84)"/>
<path d="" fill="#000000" transform="translate(0,0)"/>
<path d="M0 0 C2 1 2 1 2 1 Z " fill="#000000" transform="translate(173,77)"/>
<path d="M0 0 C2 1 2 1 2 1 Z " fill="#000000" transform="translate(171,76)"/>
<path d="M0 0 C2 1 2 1 2 1 Z " fill="#000000" transform="translate(52,74)"/>
<path d="M0 0 C2 1 2 1 2 1 Z " fill="#000000" transform="translate(49,73)"/>
<path d="M0 0 C2 1 2 1 2 1 Z " fill="#000000" transform="translate(30,72)"/>
<path d="M0 0 C2 1 2 1 2 1 Z " fill="#000000" transform="translate(33,71)"/>
<path d="" fill="#FFFFFF" transform="translate(0,0)"/>
<path d="" fill="#FFFFFF" transform="translate(0,0)"/>
<path d="" fill="#FEFDF8" transform="translate(0,0)"/>
<path d="" fill="#FDFBF4" transform="translate(0,0)"/>
<path d="" fill="#FFFFFF" transform="translate(0,0)"/>
<path d="" fill="#FFFFFF" transform="translate(0,0)"/>
<path d="" fill="#FFFFFC" transform="translate(0,0)"/>
<path d="" fill="#FEFEFD" transform="translate(0,0)"/>
<path d="" fill="#FFFDF6" transform="translate(0,0)"/>
<path d="" fill="#FFFFFF" transform="translate(0,0)"/>
<path d="" fill="#FEFEFD" transform="translate(0,0)"/>
<path d="" fill="#FEFEFC" transform="translate(0,0)"/>
<path d="" fill="#FFFFFE" transform="translate(0,0)"/>
<path d="" fill="#FFFFFF" transform="translate(0,0)"/>
<path d="" fill="#FFFFFF" transform="translate(0,0)"/>
<path d="" fill="#FBF1D6" transform="translate(0,0)"/>
<path d="" fill="#FEFFFF" transform="translate(0,0)"/>
<path d="" fill="#AAD7E8" transform="translate(0,0)"/>
<path d="" fill="#AAD6E8" transform="translate(0,0)"/>
<path d="" fill="#AAD8E8" transform="translate(0,0)"/>
<path d="" fill="#AEDAEC" transform="translate(0,0)"/>
<path d="" fill="#AAD6E8" transform="translate(0,0)"/>
<path d="" fill="#AAD6E6" transform="translate(0,0)"/>
<path d="" fill="#96BCC8" transform="translate(0,0)"/>
<path d="" fill="#000000" transform="translate(0,0)"/>
<path d="" fill="#000000" transform="translate(0,0)"/>
<path d="" fill="#000000" transform="translate(0,0)"/>
<path d="" fill="#000000" transform="translate(0,0)"/>
<path d="" fill="#000000" transform="translate(0,0)"/>
<path d="" fill="#000000" transform="translate(0,0)"/>
<path d="" fill="#FFFFFF" transform="translate(0,0)"/>
<path d="" fill="#FFFFFF" transform="translate(0,0)"/>
<path d="" fill="#FFFFFF" transform="translate(0,0)"/>
<path d="" fill="#000000" transform="translate(0,0)"/>
<path d="" fill="#000000" transform="translate(0,0)"/>
<path d="" fill="#000000" transform="translate(0,0)"/>
<path d="" fill="#FFFFFF" transform="translate(0,0)"/>
<path d="" fill="#FEFEFE" transform="translate(0,0)"/>
<path d="" fill="#FFFFFF" transform="translate(0,0)"/>
<path d="" fill="#000000" transform="translate(0,0)"/>
<path d="" fill="#FFFFFF" transform="translate(0,0)"/>
<path d="" fill="#FFFFFF" transform="translate(0,0)"/>
<path d="" fill="#FEFEFE" transform="translate(0,0)"/>
<path d="" fill="#FEFEFE" transform="translate(0,0)"/>
<path d="" fill="#FDFDFE" transform="translate(0,0)"/>
<path d="" fill="#FDFDFE" transform="translate(0,0)"/>
<path d="" fill="#FEFDFD" transform="translate(0,0)"/>
<path d="" fill="#FFFEFE" transform="translate(0,0)"/>
<path d="" fill="#FFFEFE" transform="translate(0,0)"/>
<path d="" fill="#000000" transform="translate(0,0)"/>
<path d="" fill="#000000" transform="translate(0,0)"/>
<path d="" fill="#010101" transform="translate(0,0)"/>
<path d="" fill="#000000" transform="translate(0,0)"/>
<path d="" fill="#000101" transform="translate(0,0)"/>
<path d="" fill="#000000" transform="translate(0,0)"/>
<path d="" fill="#000101" transform="translate(0,0)"/>
<path d="" fill="#AEADAD" transform="translate(0,0)"/>
<path d="" fill="#000000" transform="translate(0,0)"/>
<path d="" fill="#010101" transform="translate(0,0)"/>
<path d="" fill="#000000" transform="translate(0,0)"/>
<path d="" fill="#000000" transform="translate(0,0)"/>
<path d="" fill="#000000" transform="translate(0,0)"/>
<path d="" fill="#000000" transform="translate(0,0)"/>
<path d="" fill="#000000" transform="translate(0,0)"/>
<path d="" fill="#000000" transform="translate(0,0)"/>
<path d="" fill="#000000" transform="translate(0,0)"/>
<path d="" fill="#000000" transform="translate(0,0)"/>
<path d="" fill="#000000" transform="translate(0,0)"/>
<path d="" fill="#000000" transform="translate(0,0)"/>
<path d="" fill="#000000" transform="translate(0,0)"/>
<path d="" fill="#FEFEFE" transform="translate(0,0)"/>
<path d="" fill="#000000" transform="translate(0,0)"/>
<path d="" fill="#FEFEFE" transform="translate(0,0)"/>
<path d="" fill="#FEFEFE" transform="translate(0,0)"/>
<path d="" fill="#FEFEFE" transform="translate(0,0)"/>
<path d="" fill="#FEFEFE" transform="translate(0,0)"/>
<path d="" fill="#FFFFFF" transform="translate(0,0)"/>
<path d="" fill="#FFFFFF" transform="translate(0,0)"/>
<path d="" fill="#FFFFFF" transform="translate(0,0)"/>
<path d="" fill="#FFFFFF" transform="translate(0,0)"/>
<path d="" fill="#FFFFFF" transform="translate(0,0)"/>
<path d="" fill="#FFFFFF" transform="translate(0,0)"/>
<path d="" fill="#FFFFFF" transform="translate(0,0)"/>
<path d="" fill="#FFFFFF" transform="translate(0,0)"/>
<path d="" fill="#FFFFFD" transform="translate(0,0)"/>
<path d="" fill="#FFFFFF" transform="translate(0,0)"/>
<path d="" fill="#FFFFFF" transform="translate(0,0)"/>
<path d="" fill="#FFFFFF" transform="translate(0,0)"/>
<path d="" fill="#FFFFFF" transform="translate(0,0)"/>
<path d="" fill="#FFFFFF" transform="translate(0,0)"/>
<path d="" fill="#FFFFFF" transform="translate(0,0)"/>
<path d="" fill="#FFFFFF" transform="translate(0,0)"/>
<path d="" fill="#FFFFFF" transform="translate(0,0)"/>
<path d="" fill="#FFFFFF" transform="translate(0,0)"/>
<path d="" fill="#FFFFFF" transform="translate(0,0)"/>
<path d="" fill="#FFFFFF" transform="translate(0,0)"/>
<path d="" fill="#FFFFFF" transform="translate(0,0)"/>
<path d="" fill="#FFFFFF" transform="translate(0,0)"/>
<path d="" fill="#FFFFFF" transform="translate(0,0)"/>
<path d="" fill="#FFFFFF" transform="translate(0,0)"/>
<path d="" fill="#FFFFFF" transform="translate(0,0)"/>
<path d="" fill="#FFFFFF" transform="translate(0,0)"/>
<path d="" fill="#FFFFFF" transform="translate(0,0)"/>
<path d="" fill="#FFFFFF" transform="translate(0,0)"/>
<path d="" fill="#FFFFFF" transform="translate(0,0)"/>
<path d="" fill="#FFFFFD" transform="translate(0,0)"/>
<path d="" fill="#FFFFFF" transform="translate(0,0)"/>
<path d="" fill="#FFFFFF" transform="translate(0,0)"/>
<path d="" fill="#FFFFFF" transform="translate(0,0)"/>
<path d="" fill="#FFFFFF" transform="translate(0,0)"/>
<path d="" fill="#FFFFFF" transform="translate(0,0)"/>
<path d="" fill="#FFFFFF" transform="translate(0,0)"/>
<path d="" fill="#FFFFFF" transform="translate(0,0)"/>
<path d="" fill="#FFFFFF" transform="translate(0,0)"/>
<path d="" fill="#FFFFFF" transform="translate(0,0)"/>
<path d="" fill="#FFFFFF" transform="translate(0,0)"/>
<path d="" fill="#FFFFFF" transform="translate(0,0)"/>
<path d="" fill="#FFF5DF" transform="translate(0,0)"/>
<path d="" fill="#FFFFFF" transform="translate(0,0)"/>
<path d="" fill="#FFFFFF" transform="translate(0,0)"/>
<path d="" fill="#FFFFFF" transform="translate(0,0)"/>
<path d="" fill="#FFFDF9" transform="translate(0,0)"/>
<path d="" fill="#FFFFFF" transform="translate(0,0)"/>
<path d="" fill="#FFFFFF" transform="translate(0,0)"/>
<path d="" fill="#FFFFF3" transform="translate(0,0)"/>
<path d="" fill="#FFFFFF" transform="translate(0,0)"/>
<path d="" fill="#FFFFFF" transform="translate(0,0)"/>
<path d="" fill="#FFFFFF" transform="translate(0,0)"/>
<path d="" fill="#FFFFFD" transform="translate(0,0)"/>
<path d="" fill="#FFFFFF" transform="translate(0,0)"/>
<path d="" fill="#FDFDFD" transform="translate(0,0)"/>
<path d="" fill="#FFFFFF" transform="translate(0,0)"/>
<path d="" fill="#FEFEFE" transform="translate(0,0)"/>
<path d="" fill="#FFFFFF" transform="translate(0,0)"/>
<path d="" fill="#FEFCFC" transform="translate(0,0)"/>
<path d="" fill="#F9EDD1" transform="translate(0,0)"/>
<path d="" fill="#FFFFFD" transform="translate(0,0)"/>
<path d="" fill="#FFFFFF" transform="translate(0,0)"/>
<path d="" fill="#FFFFFF" transform="translate(0,0)"/>
<path d="" fill="#FEFEFE" transform="translate(0,0)"/>
<path d="" fill="#FFFFFF" transform="translate(0,0)"/>
<path d="" fill="#FFFFFC" transform="translate(0,0)"/>
<path d="" fill="#FFFFFF" transform="translate(0,0)"/>
</svg>
